<svg width="22" height="21" viewBox="0 0 22 21" fill="none" xmlns="http://www.w3.org/2000/svg">
<path fill-rule="evenodd" clip-rule="evenodd" d="M4.39141 8.70209L10.0743 3.25737L10.7815 3.93494L5.09861 9.37966L4.39141 8.70209Z" fill="#999999"/>
<path fill-rule="evenodd" clip-rule="evenodd" d="M6.27715 10.5089L11.96 5.06413L12.6672 5.7417L6.98435 11.1864L6.27715 10.5089Z" fill="#999999"/>
<path fill-rule="evenodd" clip-rule="evenodd" d="M10.2848 14.3486L15.9677 8.90392L16.6749 9.58148L10.992 15.0262L10.2848 14.3486Z" fill="#999999"/>
<path fill-rule="evenodd" clip-rule="evenodd" d="M12.1707 16.1557L17.8536 10.711L18.5608 11.3885L12.8779 16.8333L12.1707 16.1557Z" fill="#999999"/>
<path fill-rule="evenodd" clip-rule="evenodd" d="M12.1701 16.1557C10.2085 18.0351 7.03517 18.0418 5.08229 16.1708C3.1294 14.2998 3.13647 11.2594 5.09807 9.38002L4.39087 8.70245C2.03694 10.9577 2.02846 14.6061 4.37193 16.8514C6.71539 19.0966 10.5234 19.0885 12.8773 16.8332L12.1701 16.1557Z" fill="#999999"/>
<path fill-rule="evenodd" clip-rule="evenodd" d="M15.9676 8.90364L16.6748 9.58121C18.5056 7.8271 18.5122 4.98946 16.6895 3.24315C14.8668 1.49684 11.905 1.50316 10.0742 3.25727L10.7814 3.93483C12.2199 2.55661 14.547 2.55164 15.9791 3.92374C17.4113 5.29584 17.4061 7.52542 15.9676 8.90364Z" fill="#999999"/>
<path fill-rule="evenodd" clip-rule="evenodd" d="M6.27704 10.5095C4.9693 11.7625 4.96459 13.7893 6.26651 15.0367C7.56844 16.2841 9.68399 16.2796 10.9917 15.0266L10.2845 14.3491C9.36911 15.2261 7.88822 15.2293 6.97687 14.3561C6.06553 13.483 6.06883 12.0641 6.98424 11.1871L6.27704 10.5095Z" fill="#999999"/>
</svg>
