<!-- icon666.com - MILLIONS OF FREE VECTOR ICONS --><svg id="Слой_1" enable-background="new 0 0 4000 4000" viewBox="0 0 4000 4000" xmlns="http://www.w3.org/2000/svg"><g fill="#1e2959"><path d="m2682.773 1372.227c-42.969-42.969-112.632-42.969-155.547 0l-1022.226 1022.226-582.227-582.227c-42.915-42.969-112.632-42.969-155.547 0-42.969 42.969-42.969 112.578 0 155.547l660 660c21.484 21.484 49.629 32.227 77.773 32.227s56.289-10.742 77.773-32.227l1100-1100c42.97-42.915 42.97-112.578.001-155.546z" fill="#1e2959" style="fill: rgb(196, 196, 196);"></path><path d="m3077.227 1372.227-1100 1100c-42.969 42.969-42.969 112.578 0 155.547 21.484 21.484 49.629 32.227 77.773 32.227s56.289-10.742 77.773-32.227l1100-1100c42.969-42.969 42.969-112.578 0-155.547-42.915-42.969-112.631-42.969-155.546 0z" fill="#1e2959" style="fill: rgb(196, 196, 196);"></path></g></svg>